<?xml version="1.0" standalone="no"?>
<!DOCTYPE svg PUBLIC "-//W3C//DTD SVG 20010904//EN"
 "http://www.w3.org/TR/2001/REC-SVG-20010904/DTD/svg10.dtd">
<svg version="1.0" xmlns="http://www.w3.org/2000/svg"
 width="227.000000pt" height="102.000000pt" viewBox="0 0 227.000000 102.000000"
 preserveAspectRatio="xMidYMid meet">

<g transform="translate(0.000000,102.000000) scale(0.100000,-0.100000)"
fill="#000000" stroke="none">
<path d="M130 891 c-6 -13 -10 -151 -10 -380 0 -348 1 -362 20 -381 19 -19 33
-20 238 -20 181 0 221 3 240 16 27 19 28 48 2 74 -19 19 -33 20 -210 20 l-190
0 0 333 c0 246 -3 336 -12 345 -19 19 -66 15 -78 -7z"/>
<path d="M760 891 c-15 -28 -12 -46 8 -64 16 -15 48 -17 245 -17 l227 0 16 25
c14 21 15 31 6 50 l-12 25 -239 0 c-227 0 -241 -1 -251 -19z"/>
<path d="M1644 892 c-151 -54 -253 -193 -262 -357 -16 -309 295 -515 573 -379
69 34 148 116 183 191 24 52 27 69 27 168 0 101 -2 115 -29 170 -38 77 -120
159 -193 193 -77 35 -221 42 -299 14z m226 -93 c65 -20 131 -78 167 -148 28
-53 33 -74 33 -130 0 -87 -22 -149 -71 -205 -89 -100 -233 -130 -351 -73 -180
88 -225 335 -87 477 78 80 201 111 309 79z"/>
<path d="M771 551 c-26 -26 -26 -46 -1 -71 19 -19 33 -20 240 -20 207 0 221 1
240 20 24 24 25 39 6 66 -13 18 -30 19 -240 22 -216 3 -226 2 -245 -17z"/>
<path d="M770 200 c-11 -11 -20 -27 -20 -35 0 -8 9 -24 20 -35 19 -19 33 -20
240 -20 207 0 221 1 240 20 25 25 25 45 0 70 -19 19 -33 20 -240 20 -207 0
-221 -1 -240 -20z"/>
</g>
</svg>
